<?xml version="1.0" encoding="UTF-8"?>
<svg id="Layer_1" xmlns="http://www.w3.org/2000/svg" version="1.1" viewBox="0 0 165.2 50">
  <!-- Generator: Adobe Illustrator 29.4.0, SVG Export Plug-In . SVG Version: 2.1.0 Build 152)  -->
  <defs>
    <style>
      .st0 {
        fill: #231f20;
      }

      .st1 {
        fill: #22a2dc;
      }

      .st2 {
        fill: #da1f27;
      }
    </style>
  </defs>
  <path class="st0" d="M127.23,12.89s-.08,0-.12,0c0,0,0-.01-.01-.02h.12s0,.01.01.02"/>
  <path class="st0" d="M127.26,12.95s-.02-.04-.03-.06h0s.02.04.03.06"/>
  <path class="st0" d="M127.26,12.95h-.12s-.02-.03-.03-.05c0,0,0-.01-.01-.02h.12s0,.01.01.02h0s.02.04.03.06"/>
  <g>
    <path class="st0" d="M85.65,12.84H1v1.16h18.44c-4.32,1.18-11.76,4.01-18.44,10.45l23.79,11.07v-17.43c.86.18,2.59.83,3.72,3.24,1.55,3.3.57,3.56.26,3.82-.31.26-1.37.33-1.37.33l2.4,1.13s6.82-1.29,5.24-5.83c-1.05-3.05-4.05-5.5-5.91-6.79h9.42v18.3l6.87,3.23V14h26.33v5.72c-2.89-5.3-7.4.07-7.4.07-.31-1.07-3.65-4.92-8.19-3.2-7.95,2.93-7.4,10.74-7.4,10.74l10.44,4.87-.02-2.63c-3.44-.59-3.72-2.65-3.58-3.68.14-1.03,2.41-4.92,4.78-5.68,2.38-.76,2.82,1.58,2.82,1.58-1.14,2-1.1,3.48-1.1,3.48l5.44,2.58c0-.83.41-3.2,1.17-4.68,1.93-3.23,3.03-.76,3.03-.76v9.88l6.81,3.24V14h6.47c.21-.42.41-.81.62-1.16M17.92,30.98l-8.91-4.37s2.58-2.58,8.91-5.82v10.19ZM24.28,18.03h0s0,0,0,0c0,0,.18,0,.46.06-.29-.06-.46-.06-.46-.06"/>
    <g>
      <path class="st0" d="M104.33,24.72c0-1,.5-1.89,1.26-2.43,0,0,0,0,0,0l-.07-.38-.12-.62h0s-.94-4.87-.94-4.87c-3.67,1.69-7.77,4.22-11.74,7.98l11.23,5.22,1.51-2.58c-.68-.54-1.11-1.38-1.11-2.32Z"/>
      <path class="st0" d="M127.22,12.87s0,.01.01.02h0s.02.04.03.06h-.12s-.02-.03-.03-.05c0,0,0-.01-.01-.02h-7.32c-1.17.06-2.26.14-3.27.25-2.99.33-5.26.84-6.78,1.27,0,0-.02,0-.02,0-.46.14-.94.3-1.44.48-.93.32-1.91.71-2.93,1.15l1.83,5.05.24.65v.02s0,0,0,0c.04,0,.08,0,.12,0,.06,0,.12.01.18.02.33.04.65.15.94.29,0,0,0,0,0,0l5.97-4.54-4.74,5.71c.2.34.33.72.37,1.12h0c.01.12.02.24.02.36,0,.47-.11.92-.31,1.32-.49.98-1.5,1.66-2.67,1.66-.15,0-.3-.01-.44-.03-.22-.03-.44-.09-.64-.17-.03-.01-.05-.03-.08-.04l-1.47,2.52,11.84,5.51V14.24c1.56-.21,3.34-.19,5.33-.26h20.74v5.75c-2.89-5.3-7.4.07-7.4.07-.31-1.07-3.65-4.92-8.19-3.2-7.95,2.93-7.4,10.74-7.4,10.74l10.45,4.87-.02-2.63c-3.44-.58-3.72-2.65-3.58-3.68.14-1.03,2.41-4.92,4.78-5.68,2.37-.76,2.82,1.58,2.82,1.58-1.13,2-1.1,3.48-1.1,3.48l5.44,2.58c0-.82.41-3.2,1.17-4.68,1.93-3.24,3.03-.76,3.03-.76v9.88l6.81,3.24V13.98h3.84v18.33l6.87,3.22V13.98h3.81v-1.11h-36.68Z"/>
    </g>
  </g>
  <g>
    <path class="st2" d="M108.17,9.81h.02c.18,0,.32-.13.33-.31l.06-2.44c0-.18-.13-.32-.31-.33h-.02c-.18,0-.32.13-.33.31l-.06,2.44c0,.18.13.32.31.33"/>
    <path class="st2" d="M126.9,12.35c-.08-.12-.15-.24-.23-.36-4.13-6.36-11.29-10.56-19.43-10.56-12.79,0-23.15,10.37-23.15,23.15,0,10.77,7.35,19.82,17.31,22.41v1.59l5.9-3.29-5.9-3.59v1.61c-7.98-2.48-13.78-9.93-13.78-18.73,0-10.84,8.79-19.62,19.62-19.62,5.94,0,11.84,2.75,15.96,7.03.12.12.23.24.34.36.16.17.32.35.47.53h3.21c-.11-.18-.21-.35-.32-.53"/>
    <path class="st2" d="M99.35,11.47h.02c.15-.1.19-.3.1-.45l-1.3-2.06c-.09-.15-.29-.19-.44-.1h-.02c-.15.1-.19.3-.1.45l1.3,2.06c.09.15.29.19.44.1"/>
    <path class="st2" d="M93.12,18.17h0c.09-.16.04-.35-.12-.45l-2.08-1.22c-.16-.09-.36-.04-.45.12-.09.16-.04.35.12.45l2.08,1.22c.16.09.36.04.45-.12"/>
    <path class="st2" d="M91.65,24.78v-.02c0-.18-.14-.32-.32-.32h-2.45c-.18,0-.32.14-.32.32v.02c0,.18.14.32.32.32h2.45c.18,0,.32-.14.32-.32"/>
    <path class="st2" d="M90.79,33.55h0c-.11-.15-.07-.35.07-.46l2.02-1.44c.15-.1.35-.07.46.07.11.15.07.35-.07.46l-2.02,1.44c-.15.1-.35.07-.46-.07"/>
    <path class="st2" d="M97.69,40.63h0c-.15-.1-.2-.3-.1-.45l1.29-2.02c.1-.15.3-.2.45-.1.15.1.2.3.1.45l-1.29,2.02c-.1.15-.3.2-.45.1"/>
    <path class="st2" d="M110.26,24.36h.09c-.01-.11-.03-.22-.05-.32,0,0,0-.02,0-.03-.05-.19-.11-.38-.19-.55-.03-.07-.07-.14-.11-.21l5.21-6.27-6.56,4.99s-.07-.03-.11-.05c-.06-.03-.12-.05-.19-.07-.21-.08-.42-.13-.62-.15-.06,0-.12-.01-.19-.02-.02,0-.04,0-.05,0l-4.08-11.24-.17.05,2.09,10.84.18.94c-.08.06-.16.12-.23.19-.09.08-.17.16-.25.26-.49.56-.76,1.28-.76,2.03,0,.13.01.27.03.43,0,.03.01.06.02.1v.03c.02.1.05.2.08.3v.02s.03.07.04.1c.05.14.1.26.15.37,0,.01.01.02.03.05.05.1.11.2.18.3.02.04.05.07.08.12.05.07.11.14.17.21l.02.03s.05.06.08.08c.08.08.15.15.22.21l-5.13,8.79c-.07.11-.08.25-.05.37.03.13.11.23.23.3.08.05.16.07.25.07.17,0,.33-.09.43-.24l5.12-8.78s0,0,.01,0c.05.02.11.04.17.06h.04c.09.04.17.06.26.08h.05s.1.03.15.04c.05,0,.11.01.16.01h.15c.38.05.78-.02,1.18-.16.48-.17.91-.46,1.25-.83.19-.21.35-.44.47-.69.05-.1.1-.21.13-.32.12-.33.18-.68.18-1.04,0-.12,0-.24-.02-.37h-.09ZM108.22,26.7h0c-.11.06-.23.1-.35.13-.19.06-.4.09-.61.09-.07,0-.13,0-.2,0-.09,0-.19-.03-.28-.05-.09-.02-.17-.05-.25-.08-.04-.01-.08-.02-.11-.04-.05-.02-.09-.05-.13-.07-.07-.03-.13-.06-.19-.1-.06-.03-.11-.08-.16-.11-.03-.02-.06-.04-.09-.06,0,0,0,0,0,0,0,0,0,0,0,0-.18-.15-.33-.33-.45-.53,0,0,0,0,0,0-.04-.07-.08-.13-.11-.2,0,0,0-.02-.01-.03-.03-.06-.05-.12-.08-.19,0-.03-.01-.05-.02-.08-.02-.05-.03-.1-.04-.15-.01-.05-.02-.09-.02-.14,0-.03-.01-.06-.02-.1,0-.08-.01-.17-.01-.25v-.03c0-.23.04-.46.11-.67.02-.06.04-.12.07-.18,0,0,0-.02.01-.03.05-.12.12-.23.19-.33.01-.01.02-.03.03-.05.02-.03.04-.05.06-.07.03-.03.05-.07.08-.1.01-.01.02-.02.03-.04.04-.04.08-.08.12-.12.01-.01.03-.03.04-.04,0,0,.02-.01.02-.02h0c.09-.08.19-.15.3-.22s.22-.12.33-.16c.23-.09.48-.14.75-.15h.05s.02,0,.03,0c.08,0,.16,0,.23.01.25.03.48.1.7.2h0s0,0,0,0h0c.28.14.53.34.73.58h0s0,0,0,0c.04.05.08.11.11.16.08.11.15.23.21.36h0s.02.06.03.09h0s0,.03.01.05c.04.11.08.22.1.34.03.13.04.27.04.41,0,.11,0,.22-.03.33h0c-.07.46-.28.87-.58,1.19-.18.19-.39.35-.63.46Z"/>
  </g>
  <path class="st1" d="M126.74,13.98c-.06,0-.14,0-.24,0-.08,0-.16,0-.24,0h.47Z"/>
</svg>